<svg width="69" height="74" viewBox="0 0 69 74" fill="none" xmlns="http://www.w3.org/2000/svg">
<path fill-rule="evenodd" clip-rule="evenodd" d="M58.8087 25.0736L39.1404 29.2852L34.9287 48.9521L30.7171 29.2852L11.0488 25.0736L30.7171 20.8592L34.9287 1.19507L39.1404 20.8592L58.8087 25.0736Z" fill="#164396"/>
<path fill-rule="evenodd" clip-rule="evenodd" d="M34.93 39.3991L32.1292 27.8756L20.6001 25.0734L32.1292 22.2726L34.93 10.7449L37.7322 22.2726L49.2571 25.0734L37.7322 27.8756L34.93 39.3991Z" fill="#EC1C24"/>
<path fill-rule="evenodd" clip-rule="evenodd" d="M34.9284 1.19219C30.2056 1.19274 25.589 2.5937 21.6624 5.21793C17.7357 7.84217 14.6754 11.5718 12.8684 15.9353C11.0614 20.2987 10.5888 25.1 11.5104 29.732C12.432 34.3641 14.7064 38.6188 18.0461 41.9582C21.3857 45.2977 25.6406 47.5719 30.2727 48.4932C34.9047 49.4146 39.706 48.9417 44.0694 47.1344C48.4327 45.3271 52.1622 42.2666 54.7862 38.3398C57.4102 34.413 58.8109 29.7963 58.8112 25.0735C58.8108 18.7396 56.2944 12.6653 51.8156 8.18677C47.3367 3.7082 41.2623 1.19219 34.9284 1.19219ZM34.9284 0C48.7737 0 59.9978 11.2269 59.9978 25.0693C59.9978 38.9118 48.7695 50.1386 34.9284 50.1386C21.0874 50.1386 9.85913 38.909 9.85913 25.0693C9.85913 11.2297 21.0832 0 34.9284 0Z" fill="#164396"/>
<path fill-rule="evenodd" clip-rule="evenodd" d="M34.9288 31.0428L33.5249 26.4746L28.9595 25.0735L33.5249 23.6724L34.9288 19.1042L36.3299 23.6724L40.898 25.0735L36.3299 26.4746L34.9288 31.0428Z" fill="#FFF100"/>
<path d="M25.4315 62.6685L29.2446 68.6865L29.1111 66.1751V62.6685H32.4633V73.6938H29.1856L25.3725 67.6913L25.506 70.2027V73.6922H22.1538V62.6685H25.4315ZM13.5639 73.6938L9.91528 62.6685H13.4459L15.3082 70.0042L17.259 62.6685H20.7959L17.0868 73.6938H13.5639ZM8.91894 73.6938H0V62.6685H8.71254V65.2404H3.50271V66.8169H7.91484V69.3903H3.50271V71.1204H8.91894V73.6938Z" fill="#164396"/>
<path d="M68.7913 66.8776H65.4607C65.5105 66.3027 65.397 65.8584 65.1202 65.5414C64.8434 65.2244 64.4267 65.0659 63.8763 65.0659C62.5671 65.0659 61.7243 66.1401 61.348 68.2885C61.2747 68.6628 61.2346 69.0429 61.2283 69.4243C61.2283 70.6736 61.8031 71.2977 62.9527 71.2967C63.9893 71.2967 64.6926 70.6725 65.0627 69.4243H68.4368C68.0418 70.8466 67.3162 71.9648 66.2599 72.779C65.197 73.5956 63.8873 74.0258 62.5469 73.9987C61.0168 73.9987 59.8372 73.6025 59.0079 72.8101C58.1787 72.0176 57.7599 70.9196 57.7516 69.516C57.7534 69.0634 57.7929 68.6118 57.8698 68.1657C58.1662 66.4151 58.924 65.0027 60.143 63.9285C61.2423 62.9119 62.6879 62.3518 64.1857 62.3623C65.7012 62.3623 66.8508 62.7109 67.6344 63.408C68.4181 64.1051 68.8079 65.0975 68.8037 66.3851C68.8037 66.5405 68.8037 66.7114 68.7882 66.8761L68.7913 66.8776ZM50.2104 73.7066H46.701L48.5902 62.656H53.7493C55.0772 62.656 56.0827 62.9222 56.7658 63.4546C57.4209 63.9549 57.748 64.6764 57.7469 65.6191C57.7451 65.8766 57.7201 66.1335 57.6723 66.3866C57.2359 68.9763 55.5312 70.2712 52.5583 70.2712H50.7904L50.2104 73.7066ZM51.2335 67.6903H52.6889C53.6301 67.6903 54.1748 67.2604 54.3231 66.4006C54.3335 66.3291 54.3387 66.2569 54.3386 66.1846C54.3386 65.5507 53.7742 65.2337 52.6453 65.2337H51.6487L51.2335 67.6903ZM39.6714 62.656L42.4702 68.6878L42.7671 66.1707L43.358 62.656H46.7243L44.8367 73.7066H41.5435L38.7447 67.6903L38.4477 70.2074L37.8615 73.7066H34.5029L36.3875 62.656H39.6714Z" fill="#EC1C24"/>
</svg>
